<svg xmlns="http://www.w3.org/2000/svg" xmlns:xlink="http://www.w3.org/1999/xlink" fill="none" version="1.1" width="18" height="16" viewBox="0 0 18 16"><g transform="matrix(1,0,0,-1,0,32)"><path d="M15.0625,26Q15.9688,25.96875,16.9375,25.40625Q17.9062,24.84375,18,24Q17.9062,23.125,16.9375,22.5625Q15.9688,22.03125,15.0625,22L11.4375,22L8.28125,16.5Q8,16.03125,7.40625,16L5.65625,16Q5.09375,16.09375,5.1875,16.625L6.71875,22L3.5,22L2.15625,20.1875Q2,20,1.75,20L0.4375,20Q0.03125,20.03125,0,20.4375Q0,20.5,0.03125,20.5625L1,24L0.03125,27.4375Q0,27.5,0,27.5625Q0.03125,27.9688,0.4375,28L1.75,28Q2,28,2.15625,27.8125L3.5,26L6.71875,26L5.1875,31.375Q5.09375,31.9062,5.65625,32L7.40625,32Q8,31.9688,8.28125,31.5L11.4375,26L15.0625,26Z" fill="#1B9AF5" fill-opacity="1" style="mix-blend-mode:passthrough"/></g></svg>